<svg xmlns="http://www.w3.org/2000/svg" xmlns:xlink="http://www.w3.org/1999/xlink" viewBox="0,0,256,256" width="13px" height="13px" fill-rule="nonzero"><g fill="#ffffff" fill-rule="nonzero" stroke="none" stroke-width="1" stroke-linecap="butt" stroke-linejoin="miter" stroke-miterlimit="10" stroke-dasharray="" stroke-dashoffset="0" font-family="none" font-weight="none" font-size="none" text-anchor="none" style="mix-blend-mode: normal"><g transform="scale(9.84615,9.84615)"><path d="M5.86719,2.29688c-0.01172,0.00781 -0.02344,0.01953 -0.03516,0.03125c0.07422,-0.07812 0.17969,-0.16016 0.24609,-0.20703c2.01563,-1.30859 4.34375,-2.00781 6.92578,-2.00781c2.41406,0 4.67578,0.66797 6.60547,1.82813c0.14063,0.08203 0.52344,0.34375 0.71875,0.58203c-1.86328,-2.05469 -7.33984,2.35547 -7.33984,2.35547c-1.89062,-1.46094 -3.63281,-2.45703 -4.92969,-2.8125c-1.08594,-0.29688 -1.83594,-0.04687 -2.19141,0.23047zM22.4375,4.23828c-0.05469,-0.0625 -0.11719,-0.12109 -0.17578,-0.1875c-0.46875,-0.51562 -1.04687,-0.64062 -1.57031,-0.60937c-0.47656,0.15234 -2.67187,0.94141 -5.375,3.49609c0,0 3.04297,2.96094 4.91016,5.98828c1.86328,3.02734 2.97656,5.40625 2.29297,8.70703c2.07813,-2.28516 3.34375,-5.32031 3.34375,-8.65625c0,-3.37109 -1.29687,-6.44531 -3.42578,-8.73828zM17.78906,14.21875c-0.82422,-0.92969 -2.05469,-2.25391 -3.67578,-3.87109c-0.35547,-0.35156 -0.73047,-0.71875 -1.125,-1.10156c0,0 -0.59375,0.59375 -1.36328,1.375v-0.00391c-0.98828,1 -2.26953,2.30078 -2.98047,3.0625c-1.26563,1.35156 -4.89453,5.59375 -5.09766,7.97266c0,0 -0.80859,-1.88672 0.96484,-6.23828c1.15625,-2.84766 4.65234,-7.11719 6.11328,-8.51172c0,0 -1.33594,-1.46484 -3.00781,-2.48047l-0.01172,-0.00391c0,0 -0.01953,-0.01562 -0.04687,-0.03125c-0.80469,-0.48047 -1.6875,-0.85156 -2.53125,-0.90234c-0.86328,0.0625 -1.41016,0.69531 -1.41016,0.69531c-2.16016,2.30078 -3.48047,5.39453 -3.48047,8.80078c0,7.10547 5.75781,12.86328 12.86719,12.86328c3.76953,0 7.16016,-1.625 9.51563,-4.21094c0,-0.00391 -0.26953,-1.69922 -2,-4.13281c-0.41016,-0.57031 -1.89453,-2.34766 -2.73047,-3.28125z"></path></g></g></svg>